<?xml version="1.0" encoding="UTF-8" standalone="no"?>
<!-- Created with Inkscape (http://www.inkscape.org/) -->

<svg
   xmlns:dc="http://purl.org/dc/elements/1.1/"
   xmlns:cc="http://creativecommons.org/ns#"
   xmlns:rdf="http://www.w3.org/1999/02/22-rdf-syntax-ns#"
   xmlns:svg="http://www.w3.org/2000/svg"
   xmlns="http://www.w3.org/2000/svg"
   xmlns:sodipodi="http://sodipodi.sourceforge.net/DTD/sodipodi-0.dtd"
   xmlns:inkscape="http://www.inkscape.org/namespaces/inkscape"
   width="576"
   height="576"
   viewBox="0 0 576 576"
   id="svg5049"
   version="1.1"
   inkscape:version="0.91 r13725"
   sodipodi:docname="KvNomad.svg">
  <defs
     id="defs5051" />
  <sodipodi:namedview
     id="base"
     pagecolor="#515151"
     bordercolor="#bc1010"
     borderopacity="1"
     inkscape:pageopacity="0"
     inkscape:pageshadow="2"
     inkscape:zoom="8"
     inkscape:cx="351.72313"
     inkscape:cy="574.76408"
     inkscape:document-units="px"
     inkscape:current-layer="layer1"
     showgrid="true"
     units="mm"
     inkscape:showpageshadow="false"
     borderlayer="true"
     fit-margin-top="0"
     fit-margin-left="0"
     fit-margin-right="0"
     fit-margin-bottom="0"
     inkscape:window-width="2560"
     inkscape:window-height="1017"
     inkscape:window-x="-8"
     inkscape:window-y="-8"
     inkscape:window-maximized="1">
    <inkscape:grid
       type="xygrid"
       id="grid5597"
       empspacing="2"
       originx="0"
       originy="-1344" />
  </sodipodi:namedview>
  <metadata
     id="metadata5054">
    <rdf:RDF>
      <cc:Work
         rdf:about="">
        <dc:format>image/svg+xml</dc:format>
        <dc:type
           rdf:resource="http://purl.org/dc/dcmitype/StillImage" />
        <dc:title></dc:title>
      </cc:Work>
    </rdf:RDF>
  </metadata>
  <g
     inkscape:label="Capa 1"
     inkscape:groupmode="layer"
     id="layer1"
     transform="translate(0,867.63782)">
    <rect
       style="fill-rule:evenodd;stroke:none;stroke-width:3.60899997;stroke-linecap:round;stroke-linejoin:round"
       width="10"
       x="0"
       y="-867.63782"
       height="10"
       id="expand-button-normal" />
    <rect
       width="10"
       x="10"
       y="-867.63782"
       height="10"
       style="fill-rule:evenodd;stroke:none;stroke-width:3.60899997;stroke-linecap:round;stroke-linejoin:round"
       id="expand-combo-normal" />
    <path
       style="opacity:1;fill:#c3c9d6;fill-opacity:1;stroke:none;stroke-width:2;stroke-linecap:round;stroke-linejoin:round;stroke-miterlimit:4;stroke-dasharray:none;stroke-dashoffset:0;stroke-opacity:1"
       d="M 60 0 L 60 8 L 68 8 L 68 2 C 68 0.89201182 67.107988 0 66 0 L 60 0 z "
       id="path4202"
       transform="translate(0,-867.63782)" />
    <path
       style="opacity:1;fill:#c3c9d6;fill-opacity:1;stroke:none;stroke-width:2;stroke-linecap:round;stroke-linejoin:round;stroke-miterlimit:4;stroke-dasharray:none;stroke-dashoffset:0;stroke-opacity:1"
       d="M 68 36 L 60 36 L 60 44 L 66 44 C 67.107988 44 68 43.107988 68 42 L 68 36 z "
       id="path4222"
       transform="translate(0,-867.63782)" />
    <path
       style="opacity:1;fill:#c3c9d6;fill-opacity:1;stroke:none;stroke-width:2;stroke-linecap:round;stroke-linejoin:round;stroke-miterlimit:4;stroke-dasharray:none;stroke-dashoffset:0;stroke-opacity:1"
       d="M 32 44 L 32 36 L 24 36 L 24 42 C 24 43.107988 24.892012 44 26 44 L 32 44 z "
       id="path4230"
       transform="translate(0,-867.63782)" />
    <path
       style="opacity:1;fill:#c3c9d6;fill-opacity:1;stroke:none;stroke-width:2;stroke-linecap:round;stroke-linejoin:round;stroke-miterlimit:4;stroke-dasharray:none;stroke-dashoffset:0;stroke-opacity:1"
       d="M 60 8 L 60 36 L 68 36 L 68 8 L 60 8 z "
       id="path4256"
       transform="translate(0,-867.63782)" />
    <path
       style="opacity:1;fill:#c3c9d6;fill-opacity:1;stroke:none;stroke-width:2;stroke-linecap:round;stroke-linejoin:round;stroke-miterlimit:4;stroke-dasharray:none;stroke-dashoffset:0;stroke-opacity:1"
       d="M 32 36 L 32 8 L 24 8 L 24 36 L 32 36 z "
       id="path4266"
       transform="translate(0,-867.63782)" />
    <path
       style="opacity:1;fill:#c3c9d6;fill-opacity:1;stroke:none;stroke-width:2;stroke-linecap:round;stroke-linejoin:round;stroke-miterlimit:4;stroke-dasharray:none;stroke-dashoffset:0;stroke-opacity:1"
       d="M 60 36 L 32 36 L 32 44 L 60 44 L 60 36 z "
       id="path4274"
       transform="translate(0,-867.63782)" />
    <path
       style="opacity:1;fill:#c3c9d6;fill-opacity:1;stroke:none;stroke-width:2;stroke-linecap:round;stroke-linejoin:round;stroke-miterlimit:4;stroke-dasharray:none;stroke-dashoffset:0;stroke-opacity:1"
       d="M 32 0 L 32 8 L 60 8 L 60 0 L 32 0 z "
       id="path4212"
       transform="translate(0,-867.63782)" />
    <path
       style="opacity:1;fill:#c3c9d6;fill-opacity:1;stroke:none;stroke-width:2;stroke-linecap:round;stroke-linejoin:round;stroke-miterlimit:4;stroke-dasharray:none;stroke-dashoffset:0;stroke-opacity:1"
       d="M 26 0 C 24.892012 0 24 0.89201182 24 2 L 24 8 L 32 8 L 32 0 L 26 0 z "
       id="rect5621"
       transform="translate(0,-867.63782)" />
    <path
       style="opacity:1;fill:#eff1f3;fill-opacity:1;stroke:none;stroke-width:2;stroke-linecap:round;stroke-linejoin:round;stroke-miterlimit:4;stroke-dasharray:none;stroke-dashoffset:0;stroke-opacity:1"
       d="M 67 36 L 60 36 L 60 43 L 66 43 C 66.553988 43 67 42.553988 67 42 L 67 36 z "
       id="path4217"
       transform="translate(0,-867.63782)" />
    <path
       style="opacity:1;fill:#eff1f3;fill-opacity:1;stroke:none;stroke-width:2;stroke-linecap:round;stroke-linejoin:round;stroke-miterlimit:4;stroke-dasharray:none;stroke-dashoffset:0;stroke-opacity:1"
       d="M 32 43 L 32 36 L 25 36 L 25 42 C 25 42.553988 25.446012 43 26 43 L 32 43 z "
       id="path4227"
       transform="translate(0,-867.63782)" />
    <path
       style="opacity:1;fill:#eff1f3;fill-opacity:1;stroke:none;stroke-width:2;stroke-linecap:round;stroke-linejoin:round;stroke-miterlimit:4;stroke-dasharray:none;stroke-dashoffset:0;stroke-opacity:1"
       d="M 60 8 L 60 36 L 67 36 L 67 8 L 60 8 z "
       id="path4253"
       transform="translate(0,-867.63782)" />
    <path
       style="opacity:1;fill:#eff1f3;fill-opacity:1;stroke:none;stroke-width:2;stroke-linecap:round;stroke-linejoin:round;stroke-miterlimit:4;stroke-dasharray:none;stroke-dashoffset:0;stroke-opacity:1"
       d="M 60 36 L 32 36 L 32 43 L 60 43 L 60 36 z "
       id="path4271"
       transform="translate(0,-867.63782)" />
    <path
       style="opacity:1;fill:#eff1f3;fill-opacity:1;stroke:none;stroke-width:2;stroke-linecap:round;stroke-linejoin:round;stroke-miterlimit:4;stroke-dasharray:none;stroke-dashoffset:0;stroke-opacity:1"
       d="m 32,-859.63782 0,28 28,0 0,-28 -28,0 z"
       id="path4261"
       inkscape:connector-curvature="0" />
    <path
       style="opacity:1;fill:#eff1f3;fill-opacity:1;stroke:none;stroke-width:2;stroke-linecap:round;stroke-linejoin:round;stroke-miterlimit:4;stroke-dasharray:none;stroke-dashoffset:0;stroke-opacity:1"
       d="M 25 36 L 32 36 L 32 8 L 25 8 L 25 36 z "
       id="path4248"
       transform="translate(0,-867.63782)" />
    <path
       style="opacity:1;fill:#eff1f3;fill-opacity:1;stroke:none;stroke-width:2;stroke-linecap:round;stroke-linejoin:round;stroke-miterlimit:4;stroke-dasharray:none;stroke-dashoffset:0;stroke-opacity:1"
       d="M 32 1 L 32 8 L 60 8 L 60 1 L 32 1 z "
       id="path4209"
       transform="translate(0,-867.63782)" />
    <path
       style="opacity:1;fill:#eff1f3;fill-opacity:1;stroke:none;stroke-width:2;stroke-linecap:round;stroke-linejoin:round;stroke-miterlimit:4;stroke-dasharray:none;stroke-dashoffset:0;stroke-opacity:1"
       d="M 25 8 L 32 8 L 32 1 L 26 1 C 25.446012 1 25 1.4460118 25 2 L 25 8 z "
       id="path4199"
       transform="translate(0,-867.63782)" />
    <path
       style="opacity:1;fill:#eff1f3;fill-opacity:1;stroke:none;stroke-width:2;stroke-linecap:round;stroke-linejoin:round;stroke-miterlimit:4;stroke-dasharray:none;stroke-dashoffset:0;stroke-opacity:1"
       d="M 60 1 L 60 8 L 67 8 L 67 2 C 67 1.4460118 66.553988 1 66 1 L 60 1 z "
       id="rect4149"
       transform="translate(0,-867.63782)" />
    <path
       id="path4284"
       d="m 108,-867.63782 0,8 8,0 0,-6 c 0,-1.10799 -0.89201,-2 -2,-2 l -6,0 z"
       style="opacity:1;fill:#00acc1;fill-opacity:1;stroke:none;stroke-width:2;stroke-linecap:round;stroke-linejoin:round;stroke-miterlimit:4;stroke-dasharray:none;stroke-dashoffset:0;stroke-opacity:1"
       inkscape:connector-curvature="0" />
    <path
       id="path4286"
       d="m 116,-831.63782 -8,0 0,8 6,0 c 1.10799,0 2,-0.89201 2,-2 l 0,-6 z"
       style="opacity:1;fill:#00acc1;fill-opacity:1;stroke:none;stroke-width:2;stroke-linecap:round;stroke-linejoin:round;stroke-miterlimit:4;stroke-dasharray:none;stroke-dashoffset:0;stroke-opacity:1"
       inkscape:connector-curvature="0" />
    <path
       id="path4288"
       d="m 80,-823.63782 0,-8 -8,0 0,6 c 0,1.10799 0.892012,2 2,2 l 6,0 z"
       style="opacity:1;fill:#00acc1;fill-opacity:1;stroke:none;stroke-width:2;stroke-linecap:round;stroke-linejoin:round;stroke-miterlimit:4;stroke-dasharray:none;stroke-dashoffset:0;stroke-opacity:1"
       inkscape:connector-curvature="0" />
    <path
       id="path4290"
       d="m 108,-859.63782 0,28 8,0 0,-28 -8,0 z"
       style="opacity:1;fill:#00acc1;fill-opacity:1;stroke:none;stroke-width:2;stroke-linecap:round;stroke-linejoin:round;stroke-miterlimit:4;stroke-dasharray:none;stroke-dashoffset:0;stroke-opacity:1"
       inkscape:connector-curvature="0" />
    <path
       id="path4292"
       d="m 80,-831.63782 0,-28 -8,0 0,28 8,0 z"
       style="opacity:1;fill:#00acc1;fill-opacity:1;stroke:none;stroke-width:2;stroke-linecap:round;stroke-linejoin:round;stroke-miterlimit:4;stroke-dasharray:none;stroke-dashoffset:0;stroke-opacity:1"
       inkscape:connector-curvature="0" />
    <path
       id="path4294"
       d="m 108,-831.63782 -28,0 0,8 28,0 0,-8 z"
       style="opacity:1;fill:#00acc1;fill-opacity:1;stroke:none;stroke-width:2;stroke-linecap:round;stroke-linejoin:round;stroke-miterlimit:4;stroke-dasharray:none;stroke-dashoffset:0;stroke-opacity:1"
       inkscape:connector-curvature="0" />
    <path
       id="path4296"
       d="m 80,-867.63782 0,8 28,0 0,-8 -28,0 z"
       style="opacity:1;fill:#00acc1;fill-opacity:1;stroke:none;stroke-width:2;stroke-linecap:round;stroke-linejoin:round;stroke-miterlimit:4;stroke-dasharray:none;stroke-dashoffset:0;stroke-opacity:1"
       inkscape:connector-curvature="0" />
    <path
       id="path4298"
       d="m 74,-867.63782 c -1.107988,0 -2,0.89201 -2,2 l 0,6 8,0 0,-8 -6,0 z"
       style="opacity:1;fill:#00acc1;fill-opacity:1;stroke:none;stroke-width:2;stroke-linecap:round;stroke-linejoin:round;stroke-miterlimit:4;stroke-dasharray:none;stroke-dashoffset:0;stroke-opacity:1"
       inkscape:connector-curvature="0" />
    <path
       id="path4300"
       d="m 115,-831.63782 -7,0 0,7 6,0 c 0.55399,0 1,-0.44601 1,-1 l 0,-6 z"
       style="opacity:1;fill:#eff1f3;fill-opacity:1;stroke:none;stroke-width:2;stroke-linecap:round;stroke-linejoin:round;stroke-miterlimit:4;stroke-dasharray:none;stroke-dashoffset:0;stroke-opacity:1"
       inkscape:connector-curvature="0" />
    <path
       id="path4302"
       d="m 80,-824.63782 0,-7 -7,0 0,6 c 0,0.55399 0.446012,1 1,1 l 6,0 z"
       style="opacity:1;fill:#eff1f3;fill-opacity:1;stroke:none;stroke-width:2;stroke-linecap:round;stroke-linejoin:round;stroke-miterlimit:4;stroke-dasharray:none;stroke-dashoffset:0;stroke-opacity:1"
       inkscape:connector-curvature="0" />
    <path
       id="path4304"
       d="m 108,-859.63782 0,28 7,0 0,-28 -7,0 z"
       style="opacity:1;fill:#eff1f3;fill-opacity:1;stroke:none;stroke-width:2;stroke-linecap:round;stroke-linejoin:round;stroke-miterlimit:4;stroke-dasharray:none;stroke-dashoffset:0;stroke-opacity:1"
       inkscape:connector-curvature="0" />
    <path
       id="path4306"
       d="m 108,-831.63782 -28,0 0,7 28,0 0,-7 z"
       style="opacity:1;fill:#eff1f3;fill-opacity:1;stroke:none;stroke-width:2;stroke-linecap:round;stroke-linejoin:round;stroke-miterlimit:4;stroke-dasharray:none;stroke-dashoffset:0;stroke-opacity:1"
       inkscape:connector-curvature="0" />
    <path
       inkscape:connector-curvature="0"
       id="path4308"
       d="m 80,-859.63782 0,28 28,0 0,-28 -28,0 z"
       style="opacity:1;fill:#eff1f3;fill-opacity:1;stroke:none;stroke-width:2;stroke-linecap:round;stroke-linejoin:round;stroke-miterlimit:4;stroke-dasharray:none;stroke-dashoffset:0;stroke-opacity:1" />
    <path
       id="path4310"
       d="m 73,-831.63782 7,0 0,-28 -7,0 0,28 z"
       style="opacity:1;fill:#eff1f3;fill-opacity:1;stroke:none;stroke-width:2;stroke-linecap:round;stroke-linejoin:round;stroke-miterlimit:4;stroke-dasharray:none;stroke-dashoffset:0;stroke-opacity:1"
       inkscape:connector-curvature="0" />
    <path
       id="path4312"
       d="m 80,-866.63782 0,7 28,0 0,-7 -28,0 z"
       style="opacity:1;fill:#eff1f3;fill-opacity:1;stroke:none;stroke-width:2;stroke-linecap:round;stroke-linejoin:round;stroke-miterlimit:4;stroke-dasharray:none;stroke-dashoffset:0;stroke-opacity:1"
       inkscape:connector-curvature="0" />
    <path
       id="path4314"
       d="m 73,-859.63782 7,0 0,-7 -6,0 c -0.553988,0 -1,0.44601 -1,1 l 0,6 z"
       style="opacity:1;fill:#eff1f3;fill-opacity:1;stroke:none;stroke-width:2;stroke-linecap:round;stroke-linejoin:round;stroke-miterlimit:4;stroke-dasharray:none;stroke-dashoffset:0;stroke-opacity:1"
       inkscape:connector-curvature="0" />
    <path
       id="path4316"
       d="m 108,-866.63782 0,7 7,0 0,-6 c 0,-0.55399 -0.44601,-1 -1,-1 l -6,0 z"
       style="opacity:1;fill:#eff1f3;fill-opacity:1;stroke:none;stroke-width:2;stroke-linecap:round;stroke-linejoin:round;stroke-miterlimit:4;stroke-dasharray:none;stroke-dashoffset:0;stroke-opacity:1"
       inkscape:connector-curvature="0" />
    <flowRoot
       xml:space="preserve"
       id="flowRoot4318"
       style="fill:black;stroke:none;stroke-opacity:1;stroke-width:1px;stroke-linejoin:miter;stroke-linecap:butt;fill-opacity:1;font-family:sans-serif;font-style:normal;font-weight:normal;font-size:7.5px;line-height:125%;letter-spacing:0px;word-spacing:0px;"><flowRegion
         id="flowRegion4320"><rect
           id="rect4322"
           width="50"
           height="21"
           x="28"
           y="47"
           style="font-size:7.5px;" /></flowRegion><flowPara
         id="flowPara4324"></flowPara></flowRoot>    <text
       xml:space="preserve"
       style="font-style:normal;font-variant:normal;font-weight:normal;font-stretch:normal;font-size:5px;line-height:125%;font-family:Lato;-inkscape-font-specification:Lato;letter-spacing:0px;word-spacing:0px;fill:#eff1f3;fill-opacity:1;stroke:none;stroke-width:1px;stroke-linecap:butt;stroke-linejoin:miter;stroke-opacity:1;"
       x="30.163593"
       y="-815.95532"
       id="text4326"
       sodipodi:linespacing="125%"><tspan
         sodipodi:role="line"
         id="tspan4328"
         x="30.163593"
         y="-815.95532">button-normal</tspan></text>
    <text
       sodipodi:linespacing="125%"
       id="text4330"
       y="-815.95532"
       x="125.29726"
       style="font-style:normal;font-variant:normal;font-weight:normal;font-stretch:normal;font-size:5px;line-height:125%;font-family:Lato;-inkscape-font-specification:Lato;letter-spacing:0px;word-spacing:0px;fill:#eff1f3;fill-opacity:1;stroke:none;stroke-width:1px;stroke-linecap:butt;stroke-linejoin:miter;stroke-opacity:1"
       xml:space="preserve"><tspan
         y="-815.95532"
         x="125.29726"
         id="tspan4332"
         sodipodi:role="line">button-pressed</tspan></text>
    <path
       inkscape:connector-curvature="0"
       style="opacity:1;fill:#00acc1;fill-opacity:1;stroke:none;stroke-width:2;stroke-linecap:round;stroke-linejoin:round;stroke-miterlimit:4;stroke-dasharray:none;stroke-dashoffset:0;stroke-opacity:1"
       d="m 156,-867.63782 0,8 8,0 0,-6 c 0,-1.10799 -0.89201,-2 -2,-2 l -6,0 z"
       id="path4334" />
    <path
       inkscape:connector-curvature="0"
       style="opacity:1;fill:#00acc1;fill-opacity:1;stroke:none;stroke-width:2;stroke-linecap:round;stroke-linejoin:round;stroke-miterlimit:4;stroke-dasharray:none;stroke-dashoffset:0;stroke-opacity:1"
       d="m 164,-831.63782 -8,0 0,8 6,0 c 1.10799,0 2,-0.89201 2,-2 l 0,-6 z"
       id="path4336" />
    <path
       inkscape:connector-curvature="0"
       style="opacity:1;fill:#00acc1;fill-opacity:1;stroke:none;stroke-width:2;stroke-linecap:round;stroke-linejoin:round;stroke-miterlimit:4;stroke-dasharray:none;stroke-dashoffset:0;stroke-opacity:1"
       d="m 128,-823.63782 0,-8 -8,0 0,6 c 0,1.10799 0.89201,2 2,2 l 6,0 z"
       id="path4338" />
    <path
       inkscape:connector-curvature="0"
       style="opacity:1;fill:#00acc1;fill-opacity:1;stroke:none;stroke-width:2;stroke-linecap:round;stroke-linejoin:round;stroke-miterlimit:4;stroke-dasharray:none;stroke-dashoffset:0;stroke-opacity:1"
       d="m 156,-859.63782 0,28 8,0 0,-28 -8,0 z"
       id="path4340" />
    <path
       inkscape:connector-curvature="0"
       style="opacity:1;fill:#00acc1;fill-opacity:1;stroke:none;stroke-width:2;stroke-linecap:round;stroke-linejoin:round;stroke-miterlimit:4;stroke-dasharray:none;stroke-dashoffset:0;stroke-opacity:1"
       d="m 128,-831.63782 0,-28 -8,0 0,28 8,0 z"
       id="path4342" />
    <path
       inkscape:connector-curvature="0"
       style="opacity:1;fill:#00acc1;fill-opacity:1;stroke:none;stroke-width:2;stroke-linecap:round;stroke-linejoin:round;stroke-miterlimit:4;stroke-dasharray:none;stroke-dashoffset:0;stroke-opacity:1"
       d="m 156,-831.63782 -28,0 0,8 28,0 0,-8 z"
       id="path4344" />
    <path
       inkscape:connector-curvature="0"
       style="opacity:1;fill:#00acc1;fill-opacity:1;stroke:none;stroke-width:2;stroke-linecap:round;stroke-linejoin:round;stroke-miterlimit:4;stroke-dasharray:none;stroke-dashoffset:0;stroke-opacity:1"
       d="m 128,-867.63782 0,8 28,0 0,-8 -28,0 z"
       id="path4346" />
    <path
       inkscape:connector-curvature="0"
       style="opacity:1;fill:#00acc1;fill-opacity:1;stroke:none;stroke-width:2;stroke-linecap:round;stroke-linejoin:round;stroke-miterlimit:4;stroke-dasharray:none;stroke-dashoffset:0;stroke-opacity:1"
       d="m 122,-867.63782 c -1.10799,0 -2,0.89201 -2,2 l 0,6 8,0 0,-8 -6,0 z"
       id="path4348" />
    <path
       inkscape:connector-curvature="0"
       style="opacity:1;fill:#26c6da;fill-opacity:1;stroke:none;stroke-width:2;stroke-linecap:round;stroke-linejoin:round;stroke-miterlimit:4;stroke-dasharray:none;stroke-dashoffset:0;stroke-opacity:1"
       d="m 163,-831.63782 -7,0 0,7 6,0 c 0.55399,0 1,-0.44601 1,-1 l 0,-6 z"
       id="path4350" />
    <path
       inkscape:connector-curvature="0"
       style="opacity:1;fill:#26c6da;fill-opacity:1;stroke:none;stroke-width:2;stroke-linecap:round;stroke-linejoin:round;stroke-miterlimit:4;stroke-dasharray:none;stroke-dashoffset:0;stroke-opacity:1"
       d="m 128,-824.63782 0,-7 -7,0 0,6 c 0,0.55399 0.44601,1 1,1 l 6,0 z"
       id="path4352" />
    <path
       inkscape:connector-curvature="0"
       style="opacity:1;fill:#26c6da;fill-opacity:1;stroke:none;stroke-width:2;stroke-linecap:round;stroke-linejoin:round;stroke-miterlimit:4;stroke-dasharray:none;stroke-dashoffset:0;stroke-opacity:1"
       d="m 156,-859.63782 0,28 7,0 0,-28 -7,0 z"
       id="path4354" />
    <path
       inkscape:connector-curvature="0"
       style="opacity:1;fill:#26c6da;fill-opacity:1;stroke:none;stroke-width:2;stroke-linecap:round;stroke-linejoin:round;stroke-miterlimit:4;stroke-dasharray:none;stroke-dashoffset:0;stroke-opacity:1"
       d="m 156,-831.63782 -28,0 0,7 28,0 0,-7 z"
       id="path4356" />
    <path
       style="opacity:1;fill:#26c6da;fill-opacity:1;stroke:none;stroke-width:2;stroke-linecap:round;stroke-linejoin:round;stroke-miterlimit:4;stroke-dasharray:none;stroke-dashoffset:0;stroke-opacity:1"
       d="m 128,-859.63782 0,28 28,0 0,-28 -28,0 z"
       id="path4358"
       inkscape:connector-curvature="0" />
    <path
       inkscape:connector-curvature="0"
       style="opacity:1;fill:#26c6da;fill-opacity:1;stroke:none;stroke-width:2;stroke-linecap:round;stroke-linejoin:round;stroke-miterlimit:4;stroke-dasharray:none;stroke-dashoffset:0;stroke-opacity:1"
       d="m 121,-831.63782 7,0 0,-28 -7,0 0,28 z"
       id="path4360" />
    <path
       inkscape:connector-curvature="0"
       style="opacity:1;fill:#26c6da;fill-opacity:1;stroke:none;stroke-width:2;stroke-linecap:round;stroke-linejoin:round;stroke-miterlimit:4;stroke-dasharray:none;stroke-dashoffset:0;stroke-opacity:1"
       d="m 128,-866.63782 0,7 28,0 0,-7 -28,0 z"
       id="path4362" />
    <path
       inkscape:connector-curvature="0"
       style="opacity:1;fill:#26c6da;fill-opacity:1;stroke:none;stroke-width:2;stroke-linecap:round;stroke-linejoin:round;stroke-miterlimit:4;stroke-dasharray:none;stroke-dashoffset:0;stroke-opacity:1"
       d="m 121,-859.63782 7,0 0,-7 -6,0 c -0.55399,0 -1,0.44601 -1,1 l 0,6 z"
       id="path4364" />
    <path
       inkscape:connector-curvature="0"
       style="opacity:1;fill:#26c6da;fill-opacity:1;stroke:none;stroke-width:2;stroke-linecap:round;stroke-linejoin:round;stroke-miterlimit:4;stroke-dasharray:none;stroke-dashoffset:0;stroke-opacity:1"
       d="m 156,-866.63782 0,7 7,0 0,-6 c 0,-0.55399 -0.44601,-1 -1,-1 l -6,0 z"
       id="path4366" />
    <text
       sodipodi:linespacing="125%"
       id="text4368"
       y="-815.95532"
       x="79.767464"
       style="font-style:normal;font-variant:normal;font-weight:normal;font-stretch:normal;font-size:5px;line-height:125%;font-family:Lato;-inkscape-font-specification:Lato;letter-spacing:0px;word-spacing:0px;fill:#eff1f3;fill-opacity:1;stroke:none;stroke-width:1px;stroke-linecap:butt;stroke-linejoin:miter;stroke-opacity:1"
       xml:space="preserve"><tspan
         y="-815.95532"
         x="79.767464"
         id="tspan4370"
         sodipodi:role="line">button-focus</tspan></text>
    <path
       id="path4378"
       d="m 220,-867.63782 0,8 8,0 0,-6 c 0,-1.10799 -0.89201,-2 -2,-2 l -6,0 z"
       style="opacity:1;fill:#c3c9d6;fill-opacity:1;stroke:none;stroke-width:2;stroke-linecap:round;stroke-linejoin:round;stroke-miterlimit:4;stroke-dasharray:none;stroke-dashoffset:0;stroke-opacity:1"
       inkscape:connector-curvature="0" />
    <path
       id="path4380"
       d="m 228,-831.63782 -8,0 0,8 6,0 c 1.10799,0 2,-0.89201 2,-2 l 0,-6 z"
       style="opacity:1;fill:#c3c9d6;fill-opacity:1;stroke:none;stroke-width:2;stroke-linecap:round;stroke-linejoin:round;stroke-miterlimit:4;stroke-dasharray:none;stroke-dashoffset:0;stroke-opacity:1"
       inkscape:connector-curvature="0" />
    <path
       id="path4382"
       d="m 192,-823.63782 0,-8 -8,0 0,6 c 0,1.10799 0.89201,2 2,2 l 6,0 z"
       style="opacity:1;fill:#c3c9d6;fill-opacity:1;stroke:none;stroke-width:2;stroke-linecap:round;stroke-linejoin:round;stroke-miterlimit:4;stroke-dasharray:none;stroke-dashoffset:0;stroke-opacity:1"
       inkscape:connector-curvature="0" />
    <path
       id="path4384"
       d="m 220,-859.63782 0,28 8,0 0,-28 -8,0 z"
       style="opacity:1;fill:#c3c9d6;fill-opacity:1;stroke:none;stroke-width:2;stroke-linecap:round;stroke-linejoin:round;stroke-miterlimit:4;stroke-dasharray:none;stroke-dashoffset:0;stroke-opacity:1"
       inkscape:connector-curvature="0" />
    <path
       id="path4386"
       d="m 192,-831.63782 0,-28 -8,0 0,28 8,0 z"
       style="opacity:1;fill:#c3c9d6;fill-opacity:1;stroke:none;stroke-width:2;stroke-linecap:round;stroke-linejoin:round;stroke-miterlimit:4;stroke-dasharray:none;stroke-dashoffset:0;stroke-opacity:1"
       inkscape:connector-curvature="0" />
    <path
       id="path4388"
       d="m 220,-831.63782 -28,0 0,8 28,0 0,-8 z"
       style="opacity:1;fill:#c3c9d6;fill-opacity:1;stroke:none;stroke-width:2;stroke-linecap:round;stroke-linejoin:round;stroke-miterlimit:4;stroke-dasharray:none;stroke-dashoffset:0;stroke-opacity:1"
       inkscape:connector-curvature="0" />
    <path
       id="path4390"
       d="m 192,-867.63782 0,8 28,0 0,-8 -28,0 z"
       style="opacity:1;fill:#c3c9d6;fill-opacity:1;stroke:none;stroke-width:2;stroke-linecap:round;stroke-linejoin:round;stroke-miterlimit:4;stroke-dasharray:none;stroke-dashoffset:0;stroke-opacity:1"
       inkscape:connector-curvature="0" />
    <path
       id="path4392"
       d="m 186,-867.63782 c -1.10799,0 -2,0.89201 -2,2 l 0,6 8,0 0,-8 -6,0 z"
       style="opacity:1;fill:#c3c9d6;fill-opacity:1;stroke:none;stroke-width:2;stroke-linecap:round;stroke-linejoin:round;stroke-miterlimit:4;stroke-dasharray:none;stroke-dashoffset:0;stroke-opacity:1"
       inkscape:connector-curvature="0" />
    <path
       id="path4394"
       d="m 227,-831.63782 -7,0 0,7 6,0 c 0.55399,0 1,-0.44601 1,-1 l 0,-6 z"
       style="opacity:1;fill:#eff1f3;fill-opacity:1;stroke:none;stroke-width:2;stroke-linecap:round;stroke-linejoin:round;stroke-miterlimit:4;stroke-dasharray:none;stroke-dashoffset:0;stroke-opacity:1"
       inkscape:connector-curvature="0" />
    <path
       id="path4396"
       d="m 192,-824.63782 0,-7 -7,0 0,6 c 0,0.55399 0.44601,1 1,1 l 6,0 z"
       style="opacity:1;fill:#eff1f3;fill-opacity:1;stroke:none;stroke-width:2;stroke-linecap:round;stroke-linejoin:round;stroke-miterlimit:4;stroke-dasharray:none;stroke-dashoffset:0;stroke-opacity:1"
       inkscape:connector-curvature="0" />
    <path
       id="path4398"
       d="m 220,-859.63782 0,28 7,0 0,-28 -7,0 z"
       style="opacity:1;fill:#eff1f3;fill-opacity:1;stroke:none;stroke-width:2;stroke-linecap:round;stroke-linejoin:round;stroke-miterlimit:4;stroke-dasharray:none;stroke-dashoffset:0;stroke-opacity:1"
       inkscape:connector-curvature="0" />
    <path
       id="path4400"
       d="m 220,-831.63782 -28,0 0,7 28,0 0,-7 z"
       style="opacity:1;fill:#eff1f3;fill-opacity:1;stroke:none;stroke-width:2;stroke-linecap:round;stroke-linejoin:round;stroke-miterlimit:4;stroke-dasharray:none;stroke-dashoffset:0;stroke-opacity:1"
       inkscape:connector-curvature="0" />
    <path
       inkscape:connector-curvature="0"
       id="path4402"
       d="m 192,-859.63782 0,28 28,0 0,-28 -28,0 z"
       style="opacity:1;fill:#eff1f3;fill-opacity:1;stroke:none;stroke-width:2;stroke-linecap:round;stroke-linejoin:round;stroke-miterlimit:4;stroke-dasharray:none;stroke-dashoffset:0;stroke-opacity:1" />
    <path
       id="path4404"
       d="m 185,-831.63782 7,0 0,-28 -7,0 0,28 z"
       style="opacity:1;fill:#eff1f3;fill-opacity:1;stroke:none;stroke-width:2;stroke-linecap:round;stroke-linejoin:round;stroke-miterlimit:4;stroke-dasharray:none;stroke-dashoffset:0;stroke-opacity:1"
       inkscape:connector-curvature="0" />
    <path
       id="path4406"
       d="m 192,-866.63782 0,7 28,0 0,-7 -28,0 z"
       style="opacity:1;fill:#eff1f3;fill-opacity:1;stroke:none;stroke-width:2;stroke-linecap:round;stroke-linejoin:round;stroke-miterlimit:4;stroke-dasharray:none;stroke-dashoffset:0;stroke-opacity:1"
       inkscape:connector-curvature="0" />
    <path
       id="path4408"
       d="m 185,-859.63782 7,0 0,-7 -6,0 c -0.55399,0 -1,0.44601 -1,1 l 0,6 z"
       style="opacity:1;fill:#eff1f3;fill-opacity:1;stroke:none;stroke-width:2;stroke-linecap:round;stroke-linejoin:round;stroke-miterlimit:4;stroke-dasharray:none;stroke-dashoffset:0;stroke-opacity:1"
       inkscape:connector-curvature="0" />
    <path
       id="path4410"
       d="m 220,-866.63782 0,7 7,0 0,-6 c 0,-0.55399 -0.44601,-1 -1,-1 l -6,0 z"
       style="opacity:1;fill:#eff1f3;fill-opacity:1;stroke:none;stroke-width:2;stroke-linecap:round;stroke-linejoin:round;stroke-miterlimit:4;stroke-dasharray:none;stroke-dashoffset:0;stroke-opacity:1"
       inkscape:connector-curvature="0" />
    <text
       sodipodi:linespacing="125%"
       id="text4412"
       y="-815.95532"
       x="186.12352"
       style="font-style:normal;font-variant:normal;font-weight:normal;font-stretch:normal;font-size:5px;line-height:125%;font-family:Lato;-inkscape-font-specification:Lato;letter-spacing:0px;word-spacing:0px;fill:#eff1f3;fill-opacity:1;stroke:none;stroke-width:1px;stroke-linecap:butt;stroke-linejoin:miter;stroke-opacity:1"
       xml:space="preserve"><tspan
         y="-815.95532"
         x="186.12352"
         id="tspan4414"
         sodipodi:role="line">combobox-normal</tspan></text>
    <path
       inkscape:connector-curvature="0"
       style="opacity:1;fill:#00acc1;fill-opacity:1;stroke:none;stroke-width:2;stroke-linecap:round;stroke-linejoin:round;stroke-miterlimit:4;stroke-dasharray:none;stroke-dashoffset:0;stroke-opacity:1"
       d="m 268,-867.63782 0,8 8,0 0,-6 c 0,-1.10799 -0.89201,-2 -2,-2 l -6,0 z"
       id="path4416" />
    <path
       inkscape:connector-curvature="0"
       style="opacity:1;fill:#00acc1;fill-opacity:1;stroke:none;stroke-width:2;stroke-linecap:round;stroke-linejoin:round;stroke-miterlimit:4;stroke-dasharray:none;stroke-dashoffset:0;stroke-opacity:1"
       d="m 276,-831.63782 -8,0 0,8 6,0 c 1.10799,0 2,-0.89201 2,-2 l 0,-6 z"
       id="path4418" />
    <path
       inkscape:connector-curvature="0"
       style="opacity:1;fill:#00acc1;fill-opacity:1;stroke:none;stroke-width:2;stroke-linecap:round;stroke-linejoin:round;stroke-miterlimit:4;stroke-dasharray:none;stroke-dashoffset:0;stroke-opacity:1"
       d="m 240,-823.63782 0,-8 -8,0 0,6 c 0,1.10799 0.89201,2 2,2 l 6,0 z"
       id="path4420" />
    <path
       inkscape:connector-curvature="0"
       style="opacity:1;fill:#00acc1;fill-opacity:1;stroke:none;stroke-width:2;stroke-linecap:round;stroke-linejoin:round;stroke-miterlimit:4;stroke-dasharray:none;stroke-dashoffset:0;stroke-opacity:1"
       d="m 268,-859.63782 0,28 8,0 0,-28 -8,0 z"
       id="path4422" />
    <path
       inkscape:connector-curvature="0"
       style="opacity:1;fill:#00acc1;fill-opacity:1;stroke:none;stroke-width:2;stroke-linecap:round;stroke-linejoin:round;stroke-miterlimit:4;stroke-dasharray:none;stroke-dashoffset:0;stroke-opacity:1"
       d="m 240,-831.63782 0,-28 -8,0 0,28 8,0 z"
       id="path4424" />
    <path
       inkscape:connector-curvature="0"
       style="opacity:1;fill:#00acc1;fill-opacity:1;stroke:none;stroke-width:2;stroke-linecap:round;stroke-linejoin:round;stroke-miterlimit:4;stroke-dasharray:none;stroke-dashoffset:0;stroke-opacity:1"
       d="m 268,-831.63782 -28,0 0,8 28,0 0,-8 z"
       id="path4426" />
    <path
       inkscape:connector-curvature="0"
       style="opacity:1;fill:#00acc1;fill-opacity:1;stroke:none;stroke-width:2;stroke-linecap:round;stroke-linejoin:round;stroke-miterlimit:4;stroke-dasharray:none;stroke-dashoffset:0;stroke-opacity:1"
       d="m 240,-867.63782 0,8 28,0 0,-8 -28,0 z"
       id="path4428" />
    <path
       inkscape:connector-curvature="0"
       style="opacity:1;fill:#00acc1;fill-opacity:1;stroke:none;stroke-width:2;stroke-linecap:round;stroke-linejoin:round;stroke-miterlimit:4;stroke-dasharray:none;stroke-dashoffset:0;stroke-opacity:1"
       d="m 234,-867.63782 c -1.10799,0 -2,0.89201 -2,2 l 0,6 8,0 0,-8 -6,0 z"
       id="path4430" />
    <path
       inkscape:connector-curvature="0"
       style="opacity:1;fill:#eff1f3;fill-opacity:1;stroke:none;stroke-width:2;stroke-linecap:round;stroke-linejoin:round;stroke-miterlimit:4;stroke-dasharray:none;stroke-dashoffset:0;stroke-opacity:1"
       d="m 275,-831.63782 -7,0 0,7 6,0 c 0.55399,0 1,-0.44601 1,-1 l 0,-6 z"
       id="path4432" />
    <path
       inkscape:connector-curvature="0"
       style="opacity:1;fill:#eff1f3;fill-opacity:1;stroke:none;stroke-width:2;stroke-linecap:round;stroke-linejoin:round;stroke-miterlimit:4;stroke-dasharray:none;stroke-dashoffset:0;stroke-opacity:1"
       d="m 240,-824.63782 0,-7 -7,0 0,6 c 0,0.55399 0.44601,1 1,1 l 6,0 z"
       id="path4434" />
    <path
       inkscape:connector-curvature="0"
       style="opacity:1;fill:#eff1f3;fill-opacity:1;stroke:none;stroke-width:2;stroke-linecap:round;stroke-linejoin:round;stroke-miterlimit:4;stroke-dasharray:none;stroke-dashoffset:0;stroke-opacity:1"
       d="m 268,-859.63782 0,28 7,0 0,-28 -7,0 z"
       id="path4436" />
    <path
       inkscape:connector-curvature="0"
       style="opacity:1;fill:#eff1f3;fill-opacity:1;stroke:none;stroke-width:2;stroke-linecap:round;stroke-linejoin:round;stroke-miterlimit:4;stroke-dasharray:none;stroke-dashoffset:0;stroke-opacity:1"
       d="m 268,-831.63782 -28,0 0,7 28,0 0,-7 z"
       id="path4438" />
    <path
       style="opacity:1;fill:#eff1f3;fill-opacity:1;stroke:none;stroke-width:2;stroke-linecap:round;stroke-linejoin:round;stroke-miterlimit:4;stroke-dasharray:none;stroke-dashoffset:0;stroke-opacity:1"
       d="m 240,-859.63782 0,28 28,0 0,-28 -28,0 z"
       id="path4440"
       inkscape:connector-curvature="0" />
    <path
       inkscape:connector-curvature="0"
       style="opacity:1;fill:#eff1f3;fill-opacity:1;stroke:none;stroke-width:2;stroke-linecap:round;stroke-linejoin:round;stroke-miterlimit:4;stroke-dasharray:none;stroke-dashoffset:0;stroke-opacity:1"
       d="m 233,-831.63782 7,0 0,-28 -7,0 0,28 z"
       id="path4442" />
    <path
       inkscape:connector-curvature="0"
       style="opacity:1;fill:#eff1f3;fill-opacity:1;stroke:none;stroke-width:2;stroke-linecap:round;stroke-linejoin:round;stroke-miterlimit:4;stroke-dasharray:none;stroke-dashoffset:0;stroke-opacity:1"
       d="m 240,-866.63782 0,7 28,0 0,-7 -28,0 z"
       id="path4444" />
    <path
       inkscape:connector-curvature="0"
       style="opacity:1;fill:#eff1f3;fill-opacity:1;stroke:none;stroke-width:2;stroke-linecap:round;stroke-linejoin:round;stroke-miterlimit:4;stroke-dasharray:none;stroke-dashoffset:0;stroke-opacity:1"
       d="m 233,-859.63782 7,0 0,-7 -6,0 c -0.55399,0 -1,0.44601 -1,1 l 0,6 z"
       id="path4446" />
    <path
       inkscape:connector-curvature="0"
       style="opacity:1;fill:#eff1f3;fill-opacity:1;stroke:none;stroke-width:2;stroke-linecap:round;stroke-linejoin:round;stroke-miterlimit:4;stroke-dasharray:none;stroke-dashoffset:0;stroke-opacity:1"
       d="m 268,-866.63782 0,7 7,0 0,-6 c 0,-0.55399 -0.44601,-1 -1,-1 l -6,0 z"
       id="path4448" />
    <text
       xml:space="preserve"
       style="font-style:normal;font-variant:normal;font-weight:normal;font-stretch:normal;font-size:5px;line-height:125%;font-family:Lato;-inkscape-font-specification:Lato;letter-spacing:0px;word-spacing:0px;fill:#eff1f3;fill-opacity:1;stroke:none;stroke-width:1px;stroke-linecap:butt;stroke-linejoin:miter;stroke-opacity:1"
       x="235.72739"
       y="-815.95532"
       id="text4450"
       sodipodi:linespacing="125%"><tspan
         sodipodi:role="line"
         id="tspan4452"
         x="235.72739"
         y="-815.95532">combobox-focus</tspan></text>
    <path
       id="path4454"
       d="m 316,-867.63782 0,8 8,0 0,-6 c 0,-1.10799 -0.89201,-2 -2,-2 l -6,0 z"
       style="opacity:1;fill:#00acc1;fill-opacity:1;stroke:none;stroke-width:2;stroke-linecap:round;stroke-linejoin:round;stroke-miterlimit:4;stroke-dasharray:none;stroke-dashoffset:0;stroke-opacity:1"
       inkscape:connector-curvature="0" />
    <path
       id="path4456"
       d="m 324,-831.63782 -8,0 0,8 6,0 c 1.10799,0 2,-0.89201 2,-2 l 0,-6 z"
       style="opacity:1;fill:#00acc1;fill-opacity:1;stroke:none;stroke-width:2;stroke-linecap:round;stroke-linejoin:round;stroke-miterlimit:4;stroke-dasharray:none;stroke-dashoffset:0;stroke-opacity:1"
       inkscape:connector-curvature="0" />
    <path
       id="path4458"
       d="m 288,-823.63782 0,-8 -8,0 0,6 c 0,1.10799 0.89201,2 2,2 l 6,0 z"
       style="opacity:1;fill:#00acc1;fill-opacity:1;stroke:none;stroke-width:2;stroke-linecap:round;stroke-linejoin:round;stroke-miterlimit:4;stroke-dasharray:none;stroke-dashoffset:0;stroke-opacity:1"
       inkscape:connector-curvature="0" />
    <path
       id="path4460"
       d="m 316,-859.63782 0,28 8,0 0,-28 -8,0 z"
       style="opacity:1;fill:#00acc1;fill-opacity:1;stroke:none;stroke-width:2;stroke-linecap:round;stroke-linejoin:round;stroke-miterlimit:4;stroke-dasharray:none;stroke-dashoffset:0;stroke-opacity:1"
       inkscape:connector-curvature="0" />
    <path
       id="path4462"
       d="m 288,-831.63782 0,-28 -8,0 0,28 8,0 z"
       style="opacity:1;fill:#00acc1;fill-opacity:1;stroke:none;stroke-width:2;stroke-linecap:round;stroke-linejoin:round;stroke-miterlimit:4;stroke-dasharray:none;stroke-dashoffset:0;stroke-opacity:1"
       inkscape:connector-curvature="0" />
    <path
       id="path4464"
       d="m 316,-831.63782 -28,0 0,8 28,0 0,-8 z"
       style="opacity:1;fill:#00acc1;fill-opacity:1;stroke:none;stroke-width:2;stroke-linecap:round;stroke-linejoin:round;stroke-miterlimit:4;stroke-dasharray:none;stroke-dashoffset:0;stroke-opacity:1"
       inkscape:connector-curvature="0" />
    <path
       id="path4466"
       d="m 288,-867.63782 0,8 28,0 0,-8 -28,0 z"
       style="opacity:1;fill:#00acc1;fill-opacity:1;stroke:none;stroke-width:2;stroke-linecap:round;stroke-linejoin:round;stroke-miterlimit:4;stroke-dasharray:none;stroke-dashoffset:0;stroke-opacity:1"
       inkscape:connector-curvature="0" />
    <path
       id="path4468"
       d="m 282,-867.63782 c -1.10799,0 -2,0.89201 -2,2 l 0,6 8,0 0,-8 -6,0 z"
       style="opacity:1;fill:#00acc1;fill-opacity:1;stroke:none;stroke-width:2;stroke-linecap:round;stroke-linejoin:round;stroke-miterlimit:4;stroke-dasharray:none;stroke-dashoffset:0;stroke-opacity:1"
       inkscape:connector-curvature="0" />
    <path
       id="path4470"
       d="m 323,-831.63782 -7,0 0,7 6,0 c 0.55399,0 1,-0.44601 1,-1 l 0,-6 z"
       style="opacity:1;fill:#26c6da;fill-opacity:1;stroke:none;stroke-width:2;stroke-linecap:round;stroke-linejoin:round;stroke-miterlimit:4;stroke-dasharray:none;stroke-dashoffset:0;stroke-opacity:1"
       inkscape:connector-curvature="0" />
    <path
       id="path4472"
       d="m 288,-824.63782 0,-7 -7,0 0,6 c 0,0.55399 0.44601,1 1,1 l 6,0 z"
       style="opacity:1;fill:#26c6da;fill-opacity:1;stroke:none;stroke-width:2;stroke-linecap:round;stroke-linejoin:round;stroke-miterlimit:4;stroke-dasharray:none;stroke-dashoffset:0;stroke-opacity:1"
       inkscape:connector-curvature="0" />
    <path
       id="path4474"
       d="m 316,-859.63782 0,28 7,0 0,-28 -7,0 z"
       style="opacity:1;fill:#26c6da;fill-opacity:1;stroke:none;stroke-width:2;stroke-linecap:round;stroke-linejoin:round;stroke-miterlimit:4;stroke-dasharray:none;stroke-dashoffset:0;stroke-opacity:1"
       inkscape:connector-curvature="0" />
    <path
       id="path4476"
       d="m 316,-831.63782 -28,0 0,7 28,0 0,-7 z"
       style="opacity:1;fill:#26c6da;fill-opacity:1;stroke:none;stroke-width:2;stroke-linecap:round;stroke-linejoin:round;stroke-miterlimit:4;stroke-dasharray:none;stroke-dashoffset:0;stroke-opacity:1"
       inkscape:connector-curvature="0" />
    <path
       inkscape:connector-curvature="0"
       id="path4478"
       d="m 288,-859.63782 0,28 28,0 0,-28 -28,0 z"
       style="opacity:1;fill:#26c6da;fill-opacity:1;stroke:none;stroke-width:2;stroke-linecap:round;stroke-linejoin:round;stroke-miterlimit:4;stroke-dasharray:none;stroke-dashoffset:0;stroke-opacity:1" />
    <path
       id="path4480"
       d="m 281,-831.63782 7,0 0,-28 -7,0 0,28 z"
       style="opacity:1;fill:#26c6da;fill-opacity:1;stroke:none;stroke-width:2;stroke-linecap:round;stroke-linejoin:round;stroke-miterlimit:4;stroke-dasharray:none;stroke-dashoffset:0;stroke-opacity:1"
       inkscape:connector-curvature="0" />
    <path
       id="path4482"
       d="m 288,-866.63782 0,7 28,0 0,-7 -28,0 z"
       style="opacity:1;fill:#26c6da;fill-opacity:1;stroke:none;stroke-width:2;stroke-linecap:round;stroke-linejoin:round;stroke-miterlimit:4;stroke-dasharray:none;stroke-dashoffset:0;stroke-opacity:1"
       inkscape:connector-curvature="0" />
    <path
       id="path4484"
       d="m 281,-859.63782 7,0 0,-7 -6,0 c -0.55399,0 -1,0.44601 -1,1 l 0,6 z"
       style="opacity:1;fill:#26c6da;fill-opacity:1;stroke:none;stroke-width:2;stroke-linecap:round;stroke-linejoin:round;stroke-miterlimit:4;stroke-dasharray:none;stroke-dashoffset:0;stroke-opacity:1"
       inkscape:connector-curvature="0" />
    <path
       id="path4486"
       d="m 316,-866.63782 0,7 7,0 0,-6 c 0,-0.55399 -0.44601,-1 -1,-1 l -6,0 z"
       style="opacity:1;fill:#26c6da;fill-opacity:1;stroke:none;stroke-width:2;stroke-linecap:round;stroke-linejoin:round;stroke-miterlimit:4;stroke-dasharray:none;stroke-dashoffset:0;stroke-opacity:1"
       inkscape:connector-curvature="0" />
    <text
       sodipodi:linespacing="125%"
       id="text4488"
       y="-815.95532"
       x="281.51599"
       style="font-style:normal;font-variant:normal;font-weight:normal;font-stretch:normal;font-size:5px;line-height:125%;font-family:Lato;-inkscape-font-specification:Lato;letter-spacing:0px;word-spacing:0px;fill:#eff1f3;fill-opacity:1;stroke:none;stroke-width:1px;stroke-linecap:butt;stroke-linejoin:miter;stroke-opacity:1"
       xml:space="preserve"><tspan
         y="-815.95532"
         x="281.51599"
         id="tspan4490"
         sodipodi:role="line">combobox-toggled</tspan></text>
    <g
       id="g4500">
      <rect
         ry="0"
         y="-867.63782"
         x="334"
         height="24.999998"
         width="25"
         id="rect4492"
         style="opacity:1;fill:none;fill-opacity:1;stroke:none;stroke-width:2;stroke-linecap:round;stroke-linejoin:round;stroke-miterlimit:4;stroke-dasharray:none;stroke-dashoffset:0;stroke-opacity:1" />
      <path
         sodipodi:nodetypes="cccc"
         inkscape:connector-curvature="0"
         id="path4494"
         d="m 336,-844.63782 21,-21 0,21 z"
         style="fill:#eeeeee;fill-opacity:1;fill-rule:evenodd;stroke:none;stroke-width:1px;stroke-linecap:butt;stroke-linejoin:miter;stroke-opacity:1" />
    </g>
    <g
       id="g4504">
      <rect
         style="opacity:1;fill:none;fill-opacity:1;stroke:none;stroke-width:2;stroke-linecap:round;stroke-linejoin:round;stroke-miterlimit:4;stroke-dasharray:none;stroke-dashoffset:0;stroke-opacity:1"
         id="rect4496"
         width="25"
         height="24.999998"
         x="362"
         y="-867.63782"
         ry="0" />
      <path
         style="fill:#bdbdbd;fill-opacity:1;fill-rule:evenodd;stroke:none;stroke-width:1px;stroke-linecap:butt;stroke-linejoin:miter;stroke-opacity:1"
         d="m 362,-842.63782 25,-25 0,25 z"
         id="path4498"
         inkscape:connector-curvature="0" />
    </g>
  </g>
</svg>
